<svg id="Capa_1" enable-background="new 0 0 512 512" height="512" viewBox="0 0 512 512" width="512" xmlns="http://www.w3.org/2000/svg"><path d="m324.5 314h-30l60 153h30v-93c0-33.137-26.863-60-60-60z" fill="#e0f8ff"/><path d="m294.5 314h-76l-22.5 30-22.5-30h-106c-33.137 0-60 26.863-60 60v93h158.5l30-30 30 30h128.5v-93c0-33.137-26.863-60-60-60z" fill="#fff"/><path d="m173.5 314 7.5 45 15 30 15-30 7.5-45z" fill="#1d54bd"/><path d="m211 359h-30l-15 108h60z" fill="#487ed2"/><path d="m474.5 247-15-30-15 30v117h30z" fill="#ffc85f"/><path d="m444.5 424v15c0 8.284 6.716 15 15 15s15-6.716 15-15v-15l-15-10z" fill="#fd805e"/><path d="m444.5 364h30v60h-30z" fill="#ffae46"/><path d="m489.5 314h-30v80h30c8.284 0 15-6.716 15-15v-50c0-8.284-6.716-15-15-15z" fill="#fea686"/><path d="m459.5 314h-30c-8.284 0-15 6.716-15 15 0 5.22 2.67 9.813 6.715 12.5-4.045 2.687-6.715 7.28-6.715 12.5s2.67 9.813 6.715 12.5c-4.045 2.687-6.715 7.28-6.715 12.5 0 8.284 6.716 15 15 15h30c8.284 0 15-6.716 15-15v-50c0-8.284-6.716-15-15-15z" fill="#feccad"/><path d="m94 127c-16.569 0-30 13.432-30 30 0 16.569 13.431 30 30 30h102v-60z" fill="#feccad"/><path d="m298 127h-102v60h102c16.569 0 30-13.431 30-30 0-16.568-13.431-30-30-30z" fill="#fea686"/><path d="m246.407 59.111h-50.407v209.889c53.572 0 97-43.428 97-97v-30c0-35.11-18.655-65.863-46.593-82.889z" fill="#fea686"/><path d="m238.388 66.881-92.795-7.77c-27.938 17.026-46.593 47.779-46.593 82.889v30c0 53.572 43.428 97 97 97 37.003 0 67-43.428 67-97v-30c0-30.288-9.59-57.33-24.612-75.119z" fill="#feccad"/><path d="m196 45c-18.461 0-35.717 5.159-50.407 14.111 12.281 14.022 30.303 22.889 50.407 22.889s38.126-8.867 50.407-22.889c-14.69-8.952-31.946-14.111-50.407-14.111z" fill="#fe843f"/><path d="m196 205.787c-12.127 0-23.005-7.677-27.067-19.103-1.387-3.903.652-8.191 4.555-9.579 3.903-1.387 8.192.651 9.579 4.554 1.94 5.459 7.138 9.127 12.933 9.127s10.993-3.668 12.933-9.127c1.388-3.903 5.677-5.942 9.579-4.554 3.903 1.387 5.942 5.676 4.555 9.579-4.062 11.426-14.94 19.103-27.067 19.103z" fill="#ff3a2f"/><path d="m324.5 306.5h-257c-37.22 0-67.5 30.281-67.5 67.5v93c0 4.142 3.358 7.5 7.5 7.5h377c4.142 0 7.5-3.358 7.5-7.5v-93c0-37.219-30.28-67.5-67.5-67.5zm-136.97 60h16.939l12.917 93h-42.773zm17.116-15h-17.293l-5-30h27.293zm-189.646 22.5c0-28.948 23.551-52.5 52.5-52.5h99.647l6.267 37.603-13.944 100.397h-84.47v-52.5c0-4.142-3.358-7.5-7.5-7.5s-7.5 3.358-7.5 7.5v52.5h-45zm362 85.5h-45v-52.5c0-4.142-3.358-7.5-7.5-7.5s-7.5 3.358-7.5 7.5v52.5h-84.47l-13.944-100.397 6.267-37.603h99.647c28.949 0 52.5 23.552 52.5 52.5z"/><path d="m489.5 306.5h-7.5v-59.5c0-1.164-.271-2.313-.792-3.354l-15-30c-1.27-2.541-3.867-4.146-6.708-4.146s-5.438 1.605-6.708 4.146l-15 30c-.521 1.041-.792 2.19-.792 3.354v59.5h-7.5c-12.407 0-22.5 10.094-22.5 22.5 0 4.525 1.351 8.856 3.79 12.5-2.439 3.645-3.79 7.974-3.79 12.5s1.351 8.855 3.79 12.5c-2.439 3.645-3.79 7.974-3.79 12.5 0 12.406 10.093 22.5 22.5 22.5h7.5v37.5c0 12.406 10.093 22.5 22.5 22.5s22.5-10.094 22.5-22.5v-37.5h7.5c12.407 0 22.5-10.094 22.5-22.5v-50c0-12.406-10.093-22.5-22.5-22.5zm-37.5-57.729 7.5-15 7.5 15v57.729h-15zm7.5 197.729c-4.136 0-7.5-3.365-7.5-7.5v-7.5h15v7.5c0 4.135-3.364 7.5-7.5 7.5zm7.5-30h-15v-15h15zm30-37.5c0 4.135-3.364 7.5-7.5 7.5h-60c-4.136 0-7.5-3.365-7.5-7.5 0-2.516 1.258-4.853 3.365-6.252 2.093-1.39 3.351-3.735 3.351-6.248s-1.258-4.858-3.351-6.248c-2.107-1.399-3.365-3.736-3.365-6.252s1.258-4.853 3.365-6.252c2.093-1.39 3.351-3.735 3.351-6.248 0-2.512-1.258-4.858-3.351-6.248-2.107-1.399-3.365-3.736-3.365-6.252 0-4.135 3.364-7.5 7.5-7.5h60c4.136 0 7.5 3.365 7.5 7.5z"/><path d="m93.946 194.499c10.32 46.843 52.155 82.001 102.054 82.001s91.734-35.158 102.054-82.001c20.653-.03 37.446-16.839 37.446-37.499s-16.793-37.469-37.446-37.499c-10.32-46.843-52.155-82.001-102.054-82.001s-91.734 35.158-102.054 82.001c-20.653.03-37.446 16.839-37.446 37.499s16.793 37.469 37.446 37.499zm139.883-133.599c-10.587 8.728-23.939 13.6-37.829 13.6s-27.242-4.872-37.829-13.6c11.497-5.384 24.316-8.4 37.829-8.4s26.331 3.016 37.829 8.4zm-142.064 73.712c-.171 2.441-.265 4.904-.265 7.388 0 4.142 3.358 7.5 7.5 7.5s7.5-3.358 7.5-7.5c0-30.211 15.049-56.971 38.042-73.186 13.812 13.206 32.214 20.686 51.458 20.686s37.646-7.48 51.458-20.686c22.993 16.215 38.042 42.975 38.042 73.186 0 4.142 3.358 7.5 7.5 7.5s7.5-3.358 7.5-7.5c0-2.484-.093-4.947-.265-7.388 11.361 1.126 20.265 10.736 20.265 22.388s-8.904 21.262-20.265 22.388c.171-2.441.265-4.904.265-7.388 0-4.142-3.358-7.5-7.5-7.5s-7.5 3.358-7.5 7.5c0 49.35-40.149 89.5-89.5 89.5s-89.5-40.15-89.5-89.5c0-4.142-3.358-7.5-7.5-7.5s-7.5 3.358-7.5 7.5c0 2.484.093 4.947.265 7.388-11.361-1.126-20.265-10.736-20.265-22.388s8.904-21.262 20.265-22.388z"/><path d="m146 150.672h12.5c0 4.142 3.358 7.5 7.5 7.5s7.5-3.358 7.5-7.5v-7.5c0-4.142-3.358-7.5-7.5-7.5h-20c-4.142 0-7.5 3.358-7.5 7.5s3.358 7.5 7.5 7.5z"/><path d="m226 158.172c4.142 0 7.5-3.358 7.5-7.5h12.5c4.142 0 7.5-3.358 7.5-7.5s-3.358-7.5-7.5-7.5h-20c-4.142 0-7.5 3.358-7.5 7.5v7.5c0 4.142 3.358 7.5 7.5 7.5z"/></svg>